<svg width="22" height="17" viewBox="0 0 22 17" fill="none" xmlns="http://www.w3.org/2000/svg">
<path fill-rule="evenodd" clip-rule="evenodd" d="M3.00012 7.62939e-06H19.0001C20.657 7.62939e-06 22.0002 1.34315 22.0002 3.00001V3.42951C22.0002 3.43686 22.0002 3.44422 22.0002 3.45157V14C22.0002 15.6569 20.657 17 19.0001 17H3.00012C1.34327 17 0.000120394 15.6569 0.000120394 14V3.45607C-4.00158e-05 3.44572 -4.02467e-05 3.43536 0.000120394 3.425V3.00001C0.000120394 1.34315 1.34327 7.62939e-06 3.00012 7.62939e-06ZM2.00012 5.36208V14C2.00012 14.5523 2.44784 15 3.00012 15H19.0002C19.5524 15 20.0002 14.5523 20.0002 14V5.36204L12.7205 10.4578C11.6875 11.1809 10.3127 11.1809 9.27972 10.4578L2.00012 5.36208ZM19.9972 2.92279L11.5736 8.81933C11.2292 9.06035 10.771 9.06035 10.4266 8.81933L2.00305 2.92283C2.04246 2.40661 2.47381 2.00002 3.00012 2.00002H19.0002C19.5265 2.00002 19.9578 2.40659 19.9972 2.92279Z" fill="#B5B5BE"/>
</svg>
