<svg width="17" height="17" viewBox="0 0 17 17" fill="none" xmlns="http://www.w3.org/2000/svg">
<path d="M16.441 15.461L12.307 11.332C13.4336 9.95418 13.9876 8.19603 13.8543 6.42121C13.721 4.6464 12.9106 2.99073 11.5908 1.79666C10.271 0.602585 8.54268 -0.0385198 6.76342 0.00595234C4.98417 0.0504245 3.29007 0.777071 2.03156 2.03559C0.773043 3.2941 0.0463962 4.9882 0.00192402 6.76745C-0.0425481 8.54671 0.598557 10.275 1.79263 11.5948C2.9867 12.9146 4.64238 13.725 6.41719 13.8583C8.192 13.9916 9.95015 13.4376 11.328 12.311L15.462 16.445C15.5251 16.5143 15.6016 16.57 15.6869 16.6088C15.7722 16.6477 15.8644 16.6688 15.9581 16.671C16.0518 16.6732 16.1449 16.6563 16.2319 16.6215C16.3189 16.5866 16.3979 16.5345 16.4642 16.4682C16.5304 16.4019 16.5826 16.3229 16.6174 16.236C16.6523 16.149 16.6691 16.0558 16.667 15.9621C16.6648 15.8685 16.6437 15.7762 16.6048 15.6909C16.566 15.6056 16.5102 15.5291 16.441 15.466V15.461ZM6.94797 12.488C5.85207 12.488 4.78077 12.163 3.86956 11.5542C2.95835 10.9453 2.24814 10.0799 1.82876 9.06745C1.40937 8.05496 1.29964 6.94085 1.51344 5.86601C1.72724 4.79116 2.25497 3.80385 3.02989 3.02892C3.80482 2.254 4.79213 1.72627 5.86698 1.51247C6.94183 1.29867 8.05594 1.4084 9.06842 1.82778C10.0809 2.24717 10.9463 2.95737 11.5551 3.86859C12.164 4.7798 12.489 5.85109 12.489 6.947C12.489 7.67466 12.3457 8.39518 12.0672 9.06745C11.7887 9.73971 11.3806 10.3505 10.8661 10.8651C10.3515 11.3796 9.74069 11.7878 9.06842 12.0662C8.39616 12.3447 7.67563 12.488 6.94797 12.488Z" fill="white"/>
</svg>
