<svg width="23" height="25" viewBox="0 0 23 25" fill="none" xmlns="http://www.w3.org/2000/svg">
<path d="M21.9889 14.658L20.0889 7.82203C19.532 5.81936 18.3217 4.06032 16.6503 2.8245C14.9789 1.58868 12.9424 0.947015 10.8644 1.00149C8.78646 1.05597 6.78635 1.80347 5.18201 3.12518C3.57766 4.44688 2.46115 6.26693 2.00994 8.29603L0.538942 14.911C0.376457 15.642 0.380214 16.4001 0.549935 17.1293C0.719655 17.8586 1.05101 18.5405 1.51952 19.1246C1.98804 19.7087 2.58176 20.1801 3.25685 20.504C3.93194 20.8279 4.67116 20.996 5.41994 20.996H6.53394C6.76346 22.1263 7.37667 23.1425 8.26968 23.8724C9.1627 24.6023 10.2806 25.001 11.4339 25.001C12.5873 25.001 13.7052 24.6023 14.5982 23.8724C15.4912 23.1425 16.1044 22.1263 16.3339 20.996H17.1719C17.9428 20.9961 18.7031 20.8179 19.3937 20.4755C20.0843 20.133 20.6863 19.6355 21.1528 19.0219C21.6192 18.4083 21.9375 17.6951 22.0827 16.9381C22.228 16.1811 22.1962 15.4007 21.9899 14.658H21.9889ZM11.4339 22.996C10.8157 22.9935 10.2133 22.7999 9.70924 22.4419C9.20517 22.0839 8.82403 21.5789 8.61794 20.996H14.2499C14.0439 21.5789 13.6627 22.0839 13.1586 22.4419C12.6546 22.7999 12.0522 22.9935 11.4339 22.996ZM19.5599 17.811C19.2813 18.1807 18.9203 18.4803 18.5055 18.686C18.0908 18.8917 17.6339 18.9979 17.1709 18.996H5.41994C4.97073 18.996 4.52726 18.895 4.12228 18.7006C3.7173 18.5062 3.36115 18.2234 3.0801 17.8729C2.79906 17.5225 2.6003 17.1134 2.4985 16.6759C2.3967 16.2383 2.39446 15.7835 2.49194 15.345L3.96194 8.72903C4.31629 7.13523 5.19325 5.70563 6.4534 4.66748C7.71355 3.62932 9.28457 3.0422 10.9167 2.99944C12.5489 2.95668 14.1485 3.46075 15.4612 4.4315C16.774 5.40225 17.7246 6.78397 18.1619 8.35703L20.0619 15.193C20.1878 15.6382 20.2081 16.1067 20.1213 16.5611C20.0345 17.0156 19.843 17.4435 19.5619 17.811H19.5599Z" fill="#262C3D"/>
</svg>
