<svg width="20" height="20" viewBox="0 0 20 20" fill="none" xmlns="http://www.w3.org/2000/svg">
<path d="M19.4254 15.6687C18.3593 14.7393 17.1801 13.9483 15.9159 13.3145C14.8648 12.8091 14.4788 12.8201 13.7352 13.3569C13.1155 13.8042 12.7154 14.2216 12.0016 14.0647C10.6717 13.4608 9.48468 12.582 8.51876 11.486C7.42178 10.5217 6.54302 9.33438 5.94114 8.00333C5.78426 7.2845 6.20628 6.88899 6.64869 6.26904C7.18524 5.52353 7.20093 5.13901 6.69105 4.08745C6.06054 2.82092 5.26961 1.6409 4.33778 0.576501C3.57218 -0.18941 3.39647 -0.0230435 2.97916 0.129197C2.54523 0.311127 2.1288 0.532296 1.73506 0.789952C1.09252 1.15746 0.572904 1.70678 0.241515 2.36886C-0.0549973 3.00921 -0.398576 4.20202 1.35069 7.31746C2.64155 9.70221 4.2766 11.8837 6.20314 13.7916C8.11131 15.7177 10.2917 17.3533 12.6746 18.646C15.7888 20.396 16.9796 20.0586 17.6212 19.7557C18.2853 19.4274 18.8352 18.9067 19.1995 18.2615C19.457 17.8676 19.6781 17.451 19.86 17.0169C20.0231 16.6057 20.1957 16.4331 19.4254 15.6687Z" fill="white"/>
</svg>
