<svg width="20" height="24" viewBox="0 0 20 24" fill="none" xmlns="http://www.w3.org/2000/svg">
<path d="M15 0H5C3.6744 0.00158786 2.40356 0.528882 1.46622 1.46622C0.528882 2.40356 0.00158786 3.6744 0 5V19C0.00158786 20.3256 0.528882 21.5964 1.46622 22.5338C2.40356 23.4711 3.6744 23.9984 5 24H15C16.3256 23.9984 17.5964 23.4711 18.5338 22.5338C19.4711 21.5964 19.9984 20.3256 20 19V5C19.9984 3.6744 19.4711 2.40356 18.5338 1.46622C17.5964 0.528882 16.3256 0.00158786 15 0V0ZM5 2H15C15.7956 2 16.5587 2.31607 17.1213 2.87868C17.6839 3.44129 18 4.20435 18 5V11H2V5C2 4.20435 2.31607 3.44129 2.87868 2.87868C3.44129 2.31607 4.20435 2 5 2V2ZM15 22H5C4.20435 22 3.44129 21.6839 2.87868 21.1213C2.31607 20.5587 2 19.7956 2 19V13H18V19C18 19.7956 17.6839 20.5587 17.1213 21.1213C16.5587 21.6839 15.7956 22 15 22Z" fill="white"/>
</svg>
