<svg width="20" height="20" viewBox="0 0 20 20" fill="none" xmlns="http://www.w3.org/2000/svg">
<path d="M19.8182 16.0683L13.7514 9.99765L19.8182 3.93174C19.9347 3.81421 20 3.65547 20 3.49005C20 3.32463 19.9347 3.16589 19.8182 3.04837L16.9543 0.181728C16.8368 0.0653102 16.678 0 16.5125 0C16.3471 0 16.1883 0.0653102 16.0708 0.181728L10.0008 6.24921L3.93235 0.181728C3.81481 0.0653102 3.65605 0 3.4906 0C3.32515 0 3.16639 0.0653102 3.04884 0.181728L0.181756 3.04837C0.0653205 3.16589 0 3.32463 0 3.49005C0 3.65547 0.0653205 3.81421 0.181756 3.93174L6.25019 9.99765L0.181756 16.0683C0.0653205 16.1858 0 16.3445 0 16.5099C0 16.6754 0.0653205 16.8341 0.181756 16.9516L3.04884 19.8183C3.16639 19.9347 3.32515 20 3.4906 20C3.65605 20 3.81481 19.9347 3.93235 19.8183L10.0008 13.7508L16.0692 19.8183C16.1868 19.9347 16.3455 20 16.511 20C16.6764 20 16.8352 19.9347 16.9527 19.8183L19.8182 16.9516C19.9347 16.8341 20 16.6754 20 16.5099C20 16.3445 19.9347 16.1858 19.8182 16.0683Z" fill="white"/>
</svg>
