<svg width="20" height="25" viewBox="0 0 20 25" fill="none" xmlns="http://www.w3.org/2000/svg">
<path d="M12.0012 7.00118V0.460604C12.9264 0.809743 13.7669 1.35157 14.4669 2.05018L17.9518 5.53704C18.6514 6.2358 19.194 7.07573 19.5433 8.00078H13.0008C12.7357 8.00078 12.4814 7.89547 12.294 7.708C12.1065 7.52054 12.0012 7.26629 12.0012 7.00118ZM19.9922 10.4861V19.0023C19.9906 20.328 19.4633 21.5988 18.526 22.5362C17.5886 23.4735 16.3178 24.0008 14.9922 24.0023H4.99608C3.67115 23.9998 2.40129 23.472 1.4648 22.5348C0.528299 21.5976 0.00155376 20.3273 0 19.0023V5C0.00155618 3.6744 0.52884 2.40353 1.46618 1.46618C2.40353 0.52884 3.6744 0.00155618 5 0L9.50804 0C9.67072 0 9.83144 0.0137201 9.99216 0.0235202V7.00118C9.99293 7.39541 10.0714 7.78563 10.223 8.14953C10.3747 8.51344 10.5965 8.8439 10.8759 9.12202C11.1553 9.40015 11.4868 9.6205 11.8514 9.77047C12.216 9.92045 12.6066 9.99711 13.0008 9.99608H19.9765C19.9882 10.1568 20 10.3175 20 10.4802L19.9922 10.4861ZM12.0012 19.0023C12.0012 18.7372 11.8959 18.483 11.7084 18.2955C11.5209 18.1081 11.2667 18.0027 11.0016 18.0027H5.99961C5.86834 18.0027 5.73835 18.0286 5.61707 18.0788C5.4958 18.1291 5.3856 18.2027 5.29278 18.2955C5.19996 18.3883 5.12633 18.4985 5.07609 18.6198C5.02586 18.7411 5 18.8711 5 19.0023C5 19.1336 5.02586 19.2636 5.07609 19.3849C5.12633 19.5062 5.19996 19.6164 5.29278 19.7092C5.3856 19.802 5.4958 19.8756 5.61707 19.9259C5.73835 19.9761 5.86834 20.002 5.99961 20.002H11.0016C11.2667 20.002 11.5209 19.8966 11.7084 19.7092C11.8959 19.5217 12.0012 19.2675 12.0012 19.0023V19.0023ZM15.002 15.002C15.002 14.7368 14.8966 14.4826 14.7092 14.2951C14.5217 14.1077 14.2675 14.0024 14.0024 14.0024H5.99961C5.73449 14.0024 5.48024 14.1077 5.29278 14.2951C5.10532 14.4826 5 14.7368 5 15.002C5 15.2671 5.10532 15.5213 5.29278 15.7088C5.48024 15.8963 5.73449 16.0016 5.99961 16.0016H14.0004C14.1318 16.0018 14.262 15.9762 14.3835 15.926C14.505 15.8759 14.6155 15.8023 14.7085 15.7095C14.8015 15.6166 14.8753 15.5064 14.9257 15.3849C14.976 15.2635 15.002 15.1334 15.002 15.002Z" fill="white"/>
</svg>
