<svg width="13" height="9" viewBox="0 0 13 9" fill="none" xmlns="http://www.w3.org/2000/svg">
<path d="M6.62399 5.94795L11.448 1.11995C11.5324 1.03505 11.6327 0.967673 11.7432 0.921697C11.8538 0.87572 11.9723 0.852051 12.092 0.852051C12.2117 0.852051 12.3302 0.87572 12.4407 0.921697C12.5513 0.967673 12.6516 1.03505 12.736 1.11995C12.9057 1.29193 13.0009 1.52383 13.0009 1.76545C13.0009 2.00707 12.9057 2.23897 12.736 2.41095L7.26999 7.87995C7.10419 8.04532 6.88102 8.14041 6.6469 8.14544C6.41278 8.15047 6.18573 8.06505 6.01299 7.90695L0.512986 2.41495C0.347438 2.24299 0.255904 2.01299 0.258032 1.7743C0.260159 1.53562 0.355779 1.30728 0.524365 1.1383C0.692951 0.969321 0.921066 0.873171 1.15975 0.870488C1.39843 0.867805 1.62864 0.958803 1.80099 1.12395L6.62399 5.94795Z" fill="white"/>
</svg>
