<svg width="25" height="19" viewBox="0 0 25 19" fill="none" xmlns="http://www.w3.org/2000/svg">
<path d="M23.7711 6.91903C22.2201 4.39303 18.6921 0.155029 12.5001 0.155029C6.30805 0.155029 2.78005 4.39303 1.22905 6.91903C0.749579 7.69454 0.495605 8.58827 0.495605 9.50003C0.495605 10.4118 0.749579 11.3055 1.22905 12.081C2.78005 14.607 6.30805 18.845 12.5001 18.845C18.6921 18.845 22.2201 14.607 23.7711 12.081C24.2505 11.3055 24.5045 10.4118 24.5045 9.50003C24.5045 8.58827 24.2505 7.69454 23.7711 6.91903ZM22.0711 11.034C20.7341 13.2 17.7191 16.845 12.5001 16.845C7.28105 16.845 4.26605 13.2 2.93405 11.034C2.64919 10.5731 2.4983 10.0419 2.4983 9.50003C2.4983 8.95816 2.64919 8.42698 2.93405 7.96603C4.26605 5.80003 7.28105 2.15503 12.5001 2.15503C17.7191 2.15503 20.7341 5.79603 22.0661 7.96603C22.3509 8.42698 22.5018 8.95816 22.5018 9.50003C22.5018 10.0419 22.3509 10.5731 22.0661 11.034H22.0711Z" fill="white"/>
<path d="M12.5 4.5C11.5111 4.5 10.5444 4.79324 9.72215 5.34265C8.89991 5.89206 8.25904 6.67295 7.8806 7.58658C7.50217 8.50021 7.40315 9.50555 7.59608 10.4755C7.789 11.4454 8.26521 12.3363 8.96447 13.0355C9.66373 13.7348 10.5546 14.211 11.5246 14.4039C12.4945 14.5969 13.4998 14.4978 14.4134 14.1194C15.327 13.741 16.1079 13.1001 16.6574 12.2779C17.2068 11.4556 17.5 10.4889 17.5 9.5C17.5 8.17392 16.9732 6.90215 16.0355 5.96447C15.0979 5.02678 13.8261 4.5 12.5 4.5V4.5ZM12.5 12.5C11.9067 12.5 11.3266 12.3241 10.8333 11.9944C10.3399 11.6648 9.95543 11.1962 9.72836 10.6481C9.5013 10.0999 9.44189 9.49667 9.55765 8.91473C9.6734 8.33279 9.95912 7.79824 10.3787 7.37868C10.7982 6.95912 11.3328 6.6734 11.9147 6.55764C12.4967 6.44189 13.0999 6.5013 13.6481 6.72836C14.1962 6.95542 14.6648 7.33994 14.9944 7.83329C15.3241 8.32664 15.5 8.90666 15.5 9.5C15.5 10.2956 15.1839 11.0587 14.6213 11.6213C14.0587 12.1839 13.2957 12.5 12.5 12.5Z" fill="white"/>
</svg>
