<svg width="25" height="23" viewBox="0 0 25 23" fill="none" xmlns="http://www.w3.org/2000/svg">
<path d="M23.9 10.455C23.5071 7.43042 21.9772 4.66894 19.6214 2.73185C17.2655 0.794751 14.2604 -0.172585 11.2169 0.0264516C8.17341 0.225489 5.3199 1.57596 3.23637 3.80338C1.15285 6.0308 -0.00434127 8.96801 1.30188e-05 12.018C-0.00575138 13.6505 0.325071 15.2667 0.971828 16.7656C1.61858 18.2646 2.56739 19.6141 3.75901 20.73C4.67035 21.5738 5.87117 22.0349 7.11301 22.018H16.88C18.192 22.0211 19.4525 21.5078 20.389 20.589C21.7237 19.2904 22.7363 17.6978 23.3459 15.9382C23.9555 14.1787 24.1453 12.301 23.9 10.455ZM18.991 19.155C18.4284 19.7093 17.6698 20.0194 16.88 20.018H7.11301C6.38229 20.033 5.67351 19.7679 5.13201 19.277C4.13929 18.3471 3.34884 17.2226 2.80997 15.9737C2.2711 14.7248 1.99538 13.3782 2.00001 12.018C2.001 10.6102 2.29879 9.21851 2.87395 7.93361C3.44912 6.64871 4.28873 5.49951 5.33801 4.561C7.16116 2.91691 9.53105 2.01038 11.986 2.018C12.3783 2.01817 12.7702 2.0402 13.16 2.084C15.0356 2.30184 16.8112 3.04657 18.2809 4.23193C19.7507 5.41729 20.8547 6.99478 21.4648 8.78169C22.075 10.5686 22.1665 12.4918 21.7287 14.3286C21.2909 16.1653 20.3417 17.8405 18.991 19.16V19.155ZM7.80701 16.303C7.90091 16.3949 7.97578 16.5044 8.02735 16.6253C8.07892 16.7462 8.10618 16.876 8.10757 17.0074C8.10896 17.1388 8.08446 17.2692 8.03547 17.3911C7.98647 17.513 7.91394 17.6241 7.82201 17.718C7.73009 17.8119 7.62057 17.8868 7.49971 17.9383C7.37885 17.9899 7.24901 18.0172 7.11762 18.0186C6.98622 18.02 6.85584 17.9955 6.73392 17.9465C6.61199 17.8975 6.50091 17.8249 6.40701 17.733C5.20195 16.5528 4.40077 15.0218 4.11796 13.3589C3.83515 11.696 4.08518 9.98629 4.83233 8.47403C5.57948 6.96176 6.78551 5.72435 8.27809 4.93861C9.77066 4.15286 11.4734 3.859 13.143 4.099C13.273 4.11775 13.3981 4.16193 13.511 4.22902C13.624 4.29611 13.7226 4.3848 13.8013 4.49002C13.8799 4.59523 13.9371 4.71492 13.9695 4.84223C14.0018 4.96954 14.0088 5.10199 13.99 5.232C13.9728 5.36273 13.9296 5.4887 13.863 5.60249C13.7964 5.71628 13.7077 5.8156 13.6021 5.89461C13.4965 5.97363 13.3762 6.03073 13.2483 6.06257C13.1203 6.0944 12.9873 6.10033 12.857 6.08C11.6055 5.90125 10.3295 6.12236 9.21111 6.71181C8.09271 7.30125 7.18908 8.2289 6.62917 9.36236C6.06926 10.4958 5.88167 11.7772 6.09319 13.0236C6.30471 14.27 6.90451 15.4177 7.80701 16.303ZM19.919 10.875C19.9731 11.2536 20.0001 11.6356 20 12.018C20.0033 13.0837 19.7917 14.1391 19.378 15.1212C18.9642 16.1033 18.3568 16.9919 17.592 17.734C17.4021 17.9197 17.1462 18.0223 16.8807 18.0193C16.6151 18.0163 16.3617 17.9079 16.176 17.718C15.9904 17.5281 15.8877 17.2722 15.8907 17.0067C15.8938 16.7411 16.0021 16.4877 16.192 16.302C16.8677 15.6434 17.3779 14.8343 17.681 13.9408C17.9841 13.0473 18.0715 12.0947 17.936 11.161C17.8981 10.8983 17.9661 10.6313 18.125 10.4187C18.2839 10.2062 18.5208 10.0654 18.7835 10.0275C19.0462 9.98958 19.3132 10.0576 19.5258 10.2165C19.7384 10.3754 19.8791 10.6123 19.917 10.875H19.919ZM13.926 11.506C14.0464 11.9388 14.02 12.3992 13.851 12.8154C13.6821 13.2316 13.3801 13.5801 12.9921 13.8065C12.6042 14.0329 12.1522 14.1245 11.7067 14.0669C11.2613 14.0093 10.8474 13.8058 10.5298 13.4882C10.2122 13.1706 10.0087 12.7568 9.95111 12.3113C9.89353 11.8658 9.9851 11.4138 10.2115 11.0259C10.4379 10.638 10.7865 10.3359 11.2026 10.167C11.6188 9.99803 12.0793 9.97166 12.512 10.092L16.293 6.311C16.3853 6.21549 16.4956 6.13931 16.6176 6.0869C16.7396 6.03449 16.8708 6.00691 17.0036 6.00575C17.1364 6.0046 17.2681 6.0299 17.391 6.08018C17.5139 6.13046 17.6255 6.20472 17.7194 6.29861C17.8133 6.3925 17.8876 6.50415 17.9378 6.62705C17.9881 6.74995 18.0134 6.88163 18.0123 7.01441C18.0111 7.14718 17.9835 7.2784 17.9311 7.40041C17.8787 7.52241 17.8025 7.63276 17.707 7.725L13.926 11.506Z" fill="#58BCB3"/>
</svg>
