<svg width="24" height="25" viewBox="0 0 24 25" fill="none" xmlns="http://www.w3.org/2000/svg">
<path d="M11.476 15.22C11.2108 15.22 10.9564 15.3253 10.7689 15.5129C10.5814 15.7004 10.476 15.9548 10.476 16.22V19.22C10.476 20.0156 10.1599 20.7787 9.59732 21.3413C9.03471 21.9039 8.27165 22.22 7.476 22.22H5C4.20435 22.22 3.44129 21.9039 2.87868 21.3413C2.31607 20.7787 2 20.0156 2 19.22V5.21997C2 4.42432 2.31607 3.66126 2.87868 3.09865C3.44129 2.53604 4.20435 2.21997 5 2.21997H7.476C8.27165 2.21997 9.03471 2.53604 9.59732 3.09865C10.1599 3.66126 10.476 4.42432 10.476 5.21997V8.21997C10.476 8.48519 10.5814 8.73954 10.7689 8.92708C10.9564 9.11461 11.2108 9.21997 11.476 9.21997C11.7412 9.21997 11.9956 9.11461 12.1831 8.92708C12.3706 8.73954 12.476 8.48519 12.476 8.21997V5.21997C12.4744 3.89438 11.9471 2.62353 11.0098 1.68619C10.0724 0.748853 8.80159 0.221559 7.476 0.219971H5C3.67441 0.221559 2.40356 0.748853 1.46622 1.68619C0.528882 2.62353 0.00158786 3.89438 0 5.21997L0 19.22C0.00158786 20.5456 0.528882 21.8164 1.46622 22.7538C2.40356 23.6911 3.67441 24.2184 5 24.22H7.476C8.80159 24.2184 10.0724 23.6911 11.0098 22.7538C11.9471 21.8164 12.4744 20.5456 12.476 19.22V16.22C12.476 15.9548 12.3706 15.7004 12.1831 15.5129C11.9956 15.3253 11.7412 15.22 11.476 15.22Z" fill="white"/>
<path d="M22.867 10.0989L18.281 5.51293C18.1888 5.41742 18.0784 5.34124 17.9564 5.28883C17.8344 5.23642 17.7032 5.20883 17.5704 5.20768C17.4376 5.20653 17.3059 5.23183 17.183 5.28211C17.0602 5.33239 16.9485 5.40664 16.8546 5.50053C16.7607 5.59443 16.6865 5.70608 16.6362 5.82898C16.5859 5.95187 16.5606 6.08355 16.5618 6.21633C16.5629 6.34911 16.5905 6.48033 16.6429 6.60233C16.6953 6.72434 16.7715 6.83468 16.867 6.92693L21.129 11.1899L6 11.2199C5.73478 11.2199 5.48043 11.3253 5.29289 11.5128C5.10536 11.7004 5 11.9547 5 12.2199C5 12.4851 5.10536 12.7395 5.29289 12.927C5.48043 13.1146 5.73478 13.2199 6 13.2199L21.188 13.1889L16.865 17.5129C16.7695 17.6052 16.6933 17.7155 16.6409 17.8375C16.5885 17.9595 16.5609 18.0907 16.5597 18.2235C16.5586 18.3563 16.5839 18.488 16.6342 18.6109C16.6845 18.7338 16.7587 18.8454 16.8526 18.9393C16.9465 19.0332 17.0581 19.1075 17.181 19.1578C17.3039 19.208 17.4356 19.2333 17.5684 19.2322C17.7012 19.231 17.8324 19.2034 17.9544 19.151C18.0764 19.0986 18.1868 19.0224 18.279 18.9269L22.865 14.3409C23.4274 13.7783 23.7434 13.0154 23.7434 12.2199C23.7434 11.4244 23.4274 10.6615 22.865 10.0989H22.867Z" fill="white"/>
</svg>
