<svg width="25" height="25" viewBox="0 0 25 25" fill="none" xmlns="http://www.w3.org/2000/svg">
<path d="M23.397 1.60401C22.7171 0.925205 21.7957 0.543945 20.835 0.543945C19.8743 0.543945 18.9528 0.925205 18.273 1.60401L2.00896 17.868C1.54321 18.3311 1.17392 18.882 0.922458 19.4888C0.670994 20.0956 0.542347 20.7462 0.54396 21.403V23.456C0.54396 23.7212 0.649317 23.9756 0.836854 24.1631C1.02439 24.3507 1.27874 24.456 1.54396 24.456H3.59696C4.25372 24.4579 4.90433 24.3294 5.51112 24.0781C6.1179 23.8268 6.66882 23.4577 7.13196 22.992L23.397 6.72701C24.0755 6.0472 24.4565 5.12597 24.4565 4.16551C24.4565 3.20504 24.0755 2.28381 23.397 1.60401ZM5.71796 21.578C5.15396 22.1383 4.39192 22.4537 3.59696 22.456H2.54396V21.403C2.54295 21.0089 2.62012 20.6185 2.771 20.2545C2.92188 19.8904 3.14348 19.5599 3.42296 19.282L15.766 6.93901L18.066 9.23901L5.71796 21.578ZM21.982 5.31301L19.476 7.82001L17.176 5.52001L19.683 3.01301C19.988 2.70801 20.4016 2.53666 20.833 2.53666C21.0465 2.53666 21.258 2.57873 21.4553 2.66046C21.6527 2.74219 21.8319 2.86199 21.983 3.01301C22.134 3.16403 22.2538 3.34332 22.3355 3.54063C22.4172 3.73795 22.4593 3.94943 22.4593 4.16301C22.4593 4.37658 22.4172 4.58807 22.3355 4.78538C22.2538 4.9827 22.134 5.16199 21.983 5.31301H21.982Z" fill="white"/>
</svg>
