<svg width="23" height="23" viewBox="0 0 23 23" fill="none" xmlns="http://www.w3.org/2000/svg">
<path d="M20.295 9.30101H13.695V2.70101C13.694 2.31359 13.5396 1.94234 13.2656 1.66839C12.9917 1.39444 12.6204 1.24007 12.233 1.23901H10.767C10.5745 1.23901 10.3839 1.27693 10.206 1.35061C10.0281 1.42428 9.86653 1.53226 9.7304 1.6684C9.59426 1.80453 9.48628 1.96614 9.41261 2.144C9.33893 2.32186 9.30101 2.5125 9.30101 2.70501V9.30501H2.70101C2.31359 9.30607 1.94234 9.46044 1.66839 9.73439C1.39444 10.0083 1.24007 10.3796 1.23901 10.767L1.23901 12.233C1.23901 12.6218 1.39347 12.9947 1.6684 13.2696C1.94332 13.5446 2.31621 13.699 2.70501 13.699H9.30501V20.299C9.30501 20.4915 9.34293 20.6822 9.41661 20.86C9.49028 21.0379 9.59826 21.1995 9.7344 21.3356C9.87053 21.4718 10.0321 21.5797 10.21 21.6534C10.3879 21.7271 10.5785 21.765 10.771 21.765H12.237C12.4295 21.765 12.6202 21.7271 12.798 21.6534C12.9759 21.5797 13.1375 21.4718 13.2736 21.3356C13.4098 21.1995 13.5177 21.0379 13.5914 20.86C13.6651 20.6822 13.703 20.4915 13.703 20.299V13.699H20.303C20.6918 13.699 21.0647 13.5446 21.3396 13.2696C21.6146 12.9947 21.769 12.6218 21.769 12.233V10.767C21.769 10.5738 21.7308 10.3825 21.6567 10.2041C21.5825 10.0258 21.4738 9.86379 21.3368 9.72756C21.1998 9.59132 21.0373 9.4835 20.8585 9.4103C20.6797 9.3371 20.4882 9.29996 20.295 9.30101V9.30101Z" stroke="white" stroke-width="2"/>
</svg>
