<svg width="24" height="24" viewBox="0 0 24 24" fill="none" xmlns="http://www.w3.org/2000/svg">
<path d="M23.116 0.881037C22.7575 0.518165 22.3114 0.253893 21.821 0.113754C21.3305 -0.0263851 20.8121 -0.0376534 20.316 0.0810373L4.31602 3.45104C3.3946 3.5774 2.52675 3.95851 1.81022 4.55145C1.09369 5.14439 0.556932 5.9256 0.260394 6.8071C-0.0361437 7.68861 -0.0806832 8.6354 0.131792 9.54085C0.344266 10.4463 0.805316 11.2745 1.46302 11.932L3.18102 13.649C3.274 13.742 3.34774 13.8524 3.39802 13.9739C3.4483 14.0953 3.47412 14.2256 3.47402 14.357V17.525C3.47623 17.9705 3.57877 18.4097 3.77402 18.81L3.76602 18.817L3.79202 18.843C4.08503 19.4322 4.5636 19.9086 5.15402 20.199L5.18002 20.225L5.18702 20.217C5.58738 20.4123 6.02659 20.5148 6.47202 20.517H9.64002C9.90507 20.5168 10.1594 20.6219 10.347 20.809L12.064 22.526C12.5245 22.9917 13.0727 23.3615 13.6768 23.6143C14.2809 23.8672 14.9291 23.9979 15.584 23.999C16.1281 23.9978 16.6684 23.9087 17.184 23.735C18.0575 23.4482 18.8334 22.9231 19.4243 22.2187C20.0151 21.5144 20.3974 20.659 20.528 19.749L23.908 3.71404C24.0329 3.21368 24.0255 2.68946 23.8867 2.1928C23.7478 1.69614 23.4823 1.24411 23.116 0.881037ZM4.59702 12.237L2.87802 10.52C2.47774 10.1294 2.19719 9.63268 2.06931 9.08819C1.94142 8.5437 1.9715 7.97403 2.15602 7.44604C2.33491 6.90436 2.66562 6.42546 3.10882 6.0663C3.55201 5.70714 4.08903 5.48282 4.65602 5.42004L20.497 2.08504L5.47202 17.112V14.357C5.47353 13.9634 5.39698 13.5733 5.24679 13.2094C5.0966 12.8455 4.87575 12.515 4.59702 12.237ZM18.568 19.407C18.4912 19.9594 18.262 20.4794 17.9061 20.9087C17.5502 21.338 17.0817 21.6596 16.5532 21.8374C16.0246 22.0152 15.457 22.0422 14.914 21.9153C14.3709 21.7884 13.874 21.5127 13.479 21.119L11.759 19.399C11.4814 19.1199 11.1512 18.8986 10.7874 18.7478C10.4237 18.5971 10.0337 18.52 9.64002 18.521H6.88502L21.912 3.49904L18.568 19.407Z" fill="white"/>
</svg>
