<svg width="24" height="18" viewBox="0 0 24 18" fill="none" xmlns="http://www.w3.org/2000/svg">
<path d="M24 13V12.87C23.9957 12.4225 23.843 11.989 23.5657 11.6377C23.2884 11.2864 22.9023 11.0371 22.468 10.929C22.0452 10.8132 21.6721 10.5617 21.4061 10.2132C21.1402 9.86466 20.9962 9.4384 20.9962 9C20.9962 8.5616 21.1402 8.13534 21.4061 7.78681C21.6721 7.43827 22.0452 7.18677 22.468 7.071C22.9023 6.9629 23.2884 6.71362 23.5657 6.36231C23.843 6.01099 23.9957 5.57754 24 5.13V5C23.9984 3.67441 23.4711 2.40356 22.5338 1.46622C21.5964 0.528882 20.3256 0.00158786 19 0L3 0C2.20435 0 1.44129 0.316071 0.878679 0.87868C0.316071 1.44129 0 2.20435 0 3V5.13C0.00425148 5.57754 0.157013 6.01099 0.434299 6.36231C0.711586 6.71362 1.09769 6.9629 1.532 7.071C1.95484 7.18677 2.32792 7.43827 2.59385 7.78681C2.85979 8.13534 3.00383 8.5616 3.00383 9C3.00383 9.4384 2.85979 9.86466 2.59385 10.2132C2.32792 10.5617 1.95484 10.8132 1.532 10.929C1.09769 11.0371 0.711586 11.2864 0.434299 11.6377C0.157013 11.989 0.00425148 12.4225 0 12.87V15C0 15.7956 0.316071 16.5587 0.878679 17.1213C1.44129 17.6839 2.20435 18 3 18H19C20.3256 17.9984 21.5964 17.4711 22.5338 16.5338C23.4711 15.5964 23.9984 14.3256 24 13V13ZM2 15L2.063 12.857C2.91158 12.6221 3.65896 12.1138 4.18923 11.4109C4.71949 10.708 5.00303 9.84979 4.99585 8.96933C4.98867 8.08887 4.69118 7.23538 4.14952 6.54122C3.60786 5.84706 2.8523 5.35101 2 5.13V3C2 2.73478 2.10536 2.48043 2.29289 2.29289C2.48043 2.10536 2.73478 2 3 2L7 2V4C7 4.26522 7.10536 4.51957 7.29289 4.70711C7.48043 4.89464 7.73478 5 8 5C8.26522 5 8.51957 4.89464 8.70711 4.70711C8.89464 4.51957 9 4.26522 9 4V2L19 2C19.7956 2 20.5587 2.31607 21.1213 2.87868C21.6839 3.44129 22 4.20435 22 5L21.937 5.143C21.0936 5.37722 20.35 5.881 19.8196 6.57742C19.2893 7.27384 19.0015 8.12466 19 9C19.0075 9.88716 19.3047 10.7476 19.8462 11.4503C20.3878 12.153 21.1441 12.6596 22 12.893V13C22 13.7956 21.6839 14.5587 21.1213 15.1213C20.5587 15.6839 19.7956 16 19 16H9L9 14C9 13.7348 8.89464 13.4804 8.70711 13.2929C8.51957 13.1054 8.26522 13 8 13C7.73478 13 7.48043 13.1054 7.29289 13.2929C7.10536 13.4804 7 13.7348 7 14V16H3C2.73478 16 2.48043 15.8946 2.29289 15.7071C2.10536 15.5196 2 15.2652 2 15Z" fill="white"/>
<path d="M9 10V8C9 7.73478 8.89464 7.48043 8.70711 7.29289C8.51957 7.10536 8.26522 7 8 7C7.73478 7 7.48043 7.10536 7.29289 7.29289C7.10536 7.48043 7 7.73478 7 8V10C7 10.2652 7.10536 10.5196 7.29289 10.7071C7.48043 10.8946 7.73478 11 8 11C8.26522 11 8.51957 10.8946 8.70711 10.7071C8.89464 10.5196 9 10.2652 9 10Z" fill="white"/>
</svg>
