<svg width="27" height="28" viewBox="0 0 27 28" fill="none" xmlns="http://www.w3.org/2000/svg">
<path d="M26.448 25.699L19.798 19.049C21.6103 16.8326 22.5014 14.0044 22.2869 11.1494C22.0725 8.29443 20.7689 5.63109 18.6458 3.71031C16.5227 1.78952 13.7426 0.758237 10.8804 0.829782C8.01828 0.901328 5.29314 2.07023 3.26867 4.09469C1.24421 6.11916 0.075309 8.8443 0.00376313 11.7064C-0.0677827 14.5686 0.963497 17.3487 2.88429 19.4718C4.80508 21.5949 7.46841 22.8985 10.3234 23.1129C13.1784 23.3274 16.0066 22.4363 18.223 20.624L24.873 27.274C24.9755 27.3814 25.0984 27.4673 25.2346 27.5265C25.3708 27.5858 25.5174 27.6172 25.6659 27.6189C25.8144 27.6207 25.9617 27.5927 26.0992 27.5367C26.2368 27.4807 26.3617 27.3977 26.4667 27.2927C26.5717 27.1877 26.6546 27.0628 26.7107 26.9253C26.7667 26.7877 26.7946 26.6404 26.7929 26.4919C26.7912 26.3434 26.7597 26.1968 26.7005 26.0606C26.6413 25.9245 26.5554 25.8015 26.448 25.699ZM11.177 20.916C9.41416 20.916 7.69093 20.3933 6.22519 19.4139C4.75945 18.4345 3.61705 17.0425 2.94245 15.4139C2.26785 13.7852 2.09134 11.9931 2.43525 10.2642C2.77916 8.53521 3.62804 6.94707 4.87454 5.70056C6.12105 4.45406 7.7092 3.60518 9.43815 3.26127C11.1671 2.91736 12.9592 3.09386 14.5878 3.76847C16.2165 4.44307 17.6085 5.58547 18.5879 7.05121C19.5673 8.51694 20.09 10.2402 20.09 12.003C20.09 13.1735 19.8594 14.3325 19.4115 15.4139C18.9636 16.4952 18.3071 17.4778 17.4794 18.3055C16.6518 19.1331 15.6692 19.7896 14.5878 20.2375C13.5065 20.6855 12.3475 20.916 11.177 20.916Z" fill="#262C3D"/>
</svg>
