<svg width="23" height="24" viewBox="0 0 23 24" fill="none" xmlns="http://www.w3.org/2000/svg">
<path d="M11.797 8C11.0059 8 10.2325 8.2346 9.57472 8.67412C8.91692 9.11365 8.40423 9.73836 8.10148 10.4693C7.79873 11.2002 7.71952 12.0044 7.87386 12.7804C8.0282 13.5563 8.40916 14.269 8.96857 14.8284C9.52798 15.3878 10.2407 15.7688 11.0166 15.9231C11.7926 16.0775 12.5968 15.9983 13.3277 15.6955C14.0586 15.3928 14.6834 14.8801 15.1229 14.2223C15.5624 13.5645 15.797 12.7911 15.797 12C15.797 10.9391 15.3756 9.92172 14.6254 9.17157C13.8753 8.42143 12.8579 8 11.797 8ZM11.797 14C11.4014 14 11.0148 13.8827 10.6859 13.6629C10.357 13.4432 10.1006 13.1308 9.94924 12.7654C9.79786 12.3999 9.75826 11.9978 9.83543 11.6098C9.9126 11.2219 10.1031 10.8655 10.3828 10.5858C10.6625 10.3061 11.0189 10.1156 11.4068 10.0384C11.7948 9.96126 12.1969 10.0009 12.5624 10.1522C12.9278 10.3036 13.2402 10.56 13.4599 10.8889C13.6797 11.2178 13.797 11.6044 13.797 12C13.797 12.5304 13.5863 13.0391 13.2112 13.4142C12.8361 13.7893 12.3274 14 11.797 14Z" fill="white"/>
<path d="M21.091 13.9L20.647 13.644C20.8469 12.5564 20.8469 11.4416 20.647 10.354L21.091 10.098C21.4324 9.90102 21.7317 9.63871 21.9718 9.32606C22.2118 9.01341 22.388 8.65654 22.4901 8.27582C22.5923 7.8951 22.6184 7.49799 22.5671 7.10716C22.5158 6.71633 22.388 6.33944 22.191 5.998C21.994 5.65656 21.7317 5.35727 21.419 5.1172C21.1064 4.87714 20.7495 4.70101 20.3688 4.59886C19.9881 4.49672 19.591 4.47056 19.2001 4.52189C18.8093 4.57321 18.4324 4.70102 18.091 4.898L17.646 5.155C16.8055 4.43692 15.8396 3.88025 14.797 3.513V3C14.797 2.20435 14.4809 1.44129 13.9183 0.87868C13.3557 0.31607 12.5926 0 11.797 0C11.0013 0 10.2383 0.31607 9.67565 0.87868C9.11304 1.44129 8.79697 2.20435 8.79697 3V3.513C7.75436 3.88157 6.78882 4.4396 5.94897 5.159L5.49697 4.9C4.80741 4.50218 3.98806 4.39457 3.21916 4.60086C2.45026 4.80715 1.7948 5.31044 1.39697 6C0.999149 6.68956 0.891546 7.50892 1.09784 8.27782C1.30413 9.04672 1.80741 9.70218 2.49697 10.1L2.94097 10.356C2.74108 11.4436 2.74108 12.5584 2.94097 13.646L2.49697 13.9C1.80741 14.2978 1.30413 14.9533 1.09784 15.7222C0.891546 16.4911 0.999149 17.3104 1.39697 18C1.7948 18.6896 2.45026 19.1928 3.21916 19.3991C3.98806 19.6054 4.80741 19.4978 5.49697 19.1L5.94197 18.843C6.78407 19.5624 7.75204 20.1198 8.79697 20.487V21C8.79697 21.7956 9.11304 22.5587 9.67565 23.1213C10.2383 23.6839 11.0013 24 11.797 24C12.5926 24 13.3557 23.6839 13.9183 23.1213C14.4809 22.5587 14.797 21.7956 14.797 21V20.487C15.8396 20.1184 16.8051 19.5604 17.645 18.841L18.092 19.099C18.7815 19.4968 19.6009 19.6044 20.3698 19.3981C21.1387 19.1918 21.7941 18.6886 22.192 17.999C22.5898 17.3094 22.6974 16.4901 22.4911 15.7212C22.2848 14.9523 21.7815 14.2968 21.092 13.899L21.091 13.9ZM18.543 10.124C18.8816 11.3511 18.8816 12.6469 18.543 13.874C18.4838 14.0876 18.4973 14.3147 18.5813 14.5198C18.6653 14.7249 18.815 14.8963 19.007 15.007L20.091 15.633C20.2048 15.6987 20.3045 15.7861 20.3845 15.8903C20.4645 15.9945 20.5232 16.1135 20.5572 16.2403C20.5913 16.3672 20.6 16.4996 20.5829 16.6298C20.5657 16.7601 20.5231 16.8857 20.4575 16.9995C20.3918 17.1133 20.3044 17.213 20.2002 17.293C20.096 17.373 19.977 17.4317 19.8501 17.4658C19.7232 17.4998 19.5909 17.5085 19.4606 17.4914C19.3304 17.4743 19.2048 17.4317 19.091 17.366L18.005 16.738C17.8129 16.6267 17.5892 16.5826 17.3692 16.6124C17.1492 16.6423 16.9454 16.7445 16.79 16.903C15.8999 17.8117 14.7785 18.46 13.547 18.778C13.332 18.8333 13.1415 18.9585 13.0056 19.1339C12.8696 19.3094 12.7959 19.525 12.796 19.747V21C12.796 21.2652 12.6906 21.5196 12.5031 21.7071C12.3155 21.8946 12.0612 22 11.796 22C11.5308 22 11.2764 21.8946 11.0889 21.7071C10.9013 21.5196 10.796 21.2652 10.796 21V19.748C10.7961 19.526 10.7223 19.3104 10.5864 19.1349C10.4504 18.9595 10.2599 18.8343 10.045 18.779C8.81332 18.4597 7.6923 17.81 6.80297 16.9C6.6475 16.7415 6.44371 16.6393 6.22373 16.6094C6.00375 16.5796 5.78008 16.6237 5.58797 16.735L4.50397 17.362C4.3902 17.4287 4.26436 17.4722 4.1337 17.4901C4.00304 17.508 3.87013 17.4998 3.74263 17.4661C3.61513 17.4324 3.49556 17.3738 3.39079 17.2937C3.28603 17.2136 3.19815 17.1135 3.13221 16.9993C3.06627 16.8851 3.02357 16.759 3.00657 16.6282C2.98957 16.4974 2.99861 16.3646 3.03316 16.2373C3.06772 16.11 3.12711 15.9909 3.20791 15.8866C3.28871 15.7824 3.38933 15.6952 3.50397 15.63L4.58797 15C4.77992 14.8893 4.92965 14.7179 5.01363 14.5128C5.09762 14.3077 5.1111 14.0806 5.05197 13.867C4.71333 12.6399 4.71333 11.3441 5.05197 10.117C5.10907 9.90445 5.09445 9.67899 5.01038 9.47559C4.9263 9.2722 4.77748 9.10221 4.58697 8.992L3.50297 8.366C3.27316 8.23339 3.10544 8.01492 3.03671 7.75865C2.96798 7.50239 3.00387 7.22931 3.13647 6.9995C3.26908 6.76969 3.48755 6.60197 3.74382 6.53324C4.00009 6.46451 4.27316 6.50039 4.50297 6.633L5.58897 7.261C5.78055 7.37251 6.00376 7.41721 6.2235 7.38807C6.44325 7.35893 6.64708 7.25759 6.80297 7.1C7.69306 6.19134 8.8144 5.54302 10.046 5.225C10.2616 5.16956 10.4526 5.04375 10.5886 4.8675C10.7246 4.69125 10.798 4.47464 10.797 4.252V3C10.797 2.73478 10.9023 2.48043 11.0899 2.29289C11.2774 2.10536 11.5318 2 11.797 2C12.0622 2 12.3165 2.10536 12.5041 2.29289C12.6916 2.48043 12.797 2.73478 12.797 3V4.252C12.7969 4.47396 12.8706 4.68964 13.0066 4.86508C13.1425 5.04052 13.333 5.16573 13.548 5.221C14.78 5.54015 15.9014 6.18988 16.791 7.1C16.9464 7.25847 17.1502 7.36069 17.3702 7.39057C17.5902 7.42044 17.8139 7.37626 18.006 7.265L19.09 6.638C19.2037 6.5713 19.3296 6.52777 19.4602 6.5099C19.5909 6.49204 19.7238 6.50019 19.8513 6.5339C19.9788 6.56761 20.0984 6.6262 20.2032 6.70631C20.3079 6.78642 20.3958 6.88646 20.4617 7.00067C20.5277 7.11488 20.5704 7.24101 20.5874 7.37179C20.6044 7.50257 20.5953 7.63542 20.5608 7.76269C20.5262 7.88997 20.4668 8.00915 20.386 8.11337C20.3052 8.2176 20.2046 8.30482 20.09 8.37L19.006 9C18.815 9.11071 18.6661 9.28148 18.5823 9.48569C18.4986 9.68991 18.4847 9.9161 18.543 10.129V10.124Z" fill="white"/>
</svg>
