<svg width="22" height="21" viewBox="0 0 22 21" fill="none" xmlns="http://www.w3.org/2000/svg">
<path d="M20.246 12.985L16.857 9.56102C16.7756 9.47906 16.6788 9.414 16.5721 9.36961C16.4654 9.32522 16.351 9.30237 16.2355 9.30237C16.12 9.30237 16.0056 9.32522 15.8989 9.36961C15.7922 9.414 15.6954 9.47906 15.614 9.56102C15.4509 9.72515 15.3593 9.94714 15.3593 10.1785C15.3593 10.4099 15.4509 10.6319 15.614 10.796L18.731 13.94H0.876C0.643844 13.94 0.421181 14.0322 0.256928 14.1962C0.0926746 14.3603 0.000265019 14.5829 0 14.815H0C0 15.0474 0.0922926 15.2702 0.256574 15.4344C0.420856 15.5987 0.64367 15.691 0.876 15.691H18.784L15.614 18.852C15.532 18.9334 15.467 19.0303 15.4226 19.1369C15.3782 19.2436 15.3553 19.358 15.3553 19.4735C15.3553 19.5891 15.3782 19.7034 15.4226 19.8101C15.467 19.9168 15.532 20.0136 15.614 20.095C15.6954 20.177 15.7922 20.242 15.8989 20.2864C16.0056 20.3308 16.12 20.3537 16.2355 20.3537C16.351 20.3537 16.4654 20.3308 16.5721 20.2864C16.6788 20.242 16.7756 20.177 16.857 20.095L20.246 16.695C20.7371 16.2026 21.0129 15.5355 21.0129 14.84C21.0129 14.1446 20.7371 13.4775 20.246 12.985Z" fill="white"/>
<path d="M0.768038 7.36996L4.15704 10.794C4.23846 10.8759 4.33529 10.941 4.44195 10.9854C4.54861 11.0298 4.66301 11.0526 4.77854 11.0526C4.89407 11.0526 5.00846 11.0298 5.11513 10.9854C5.22179 10.941 5.31862 10.8759 5.40004 10.794C5.56314 10.6298 5.65469 10.4078 5.65469 10.1765C5.65469 9.94507 5.56314 9.72308 5.40004 9.55896L2.28304 6.41496L20.138 6.41496C20.3702 6.41496 20.5929 6.3228 20.7571 6.15874C20.9214 5.99467 21.0138 5.77211 21.014 5.53996C21.014 5.30763 20.9217 5.08481 20.7575 4.92053C20.5932 4.75625 20.3704 4.66396 20.138 4.66396L2.23004 4.66396L5.40004 1.50296C5.48201 1.42154 5.54706 1.32471 5.59145 1.21804C5.63584 1.11138 5.65869 0.996989 5.65869 0.881456C5.65869 0.765924 5.63584 0.651532 5.59145 0.544868C5.54706 0.438205 5.48201 0.341375 5.40004 0.259956C5.31862 0.177989 5.22179 0.112937 5.11513 0.0685453C5.00846 0.0241537 4.89407 0.00130081 4.77854 0.00130081C4.66301 0.00130081 4.54861 0.0241537 4.44195 0.0685453C4.33529 0.112937 4.23846 0.177989 4.15704 0.259956L0.768038 3.65996C0.276949 4.1524 0.00117302 4.81949 0.00117302 5.51496C0.00117302 6.21042 0.276949 6.87751 0.768038 7.36996Z" fill="white"/>
</svg>
