<svg width="24" height="21" viewBox="0 0 24 21" fill="none" xmlns="http://www.w3.org/2000/svg">
<path d="M23.001 20.5861C22.7358 20.5861 22.4814 20.4807 22.2939 20.2932C22.1063 20.1056 22.001 19.8513 22.001 19.5861C21.9994 17.9953 21.3668 16.4701 20.2419 15.3452C19.117 14.2203 17.5918 13.5877 16.001 13.5861H10.171V15.1721C10.1709 15.5676 10.0536 15.9542 9.8338 16.283C9.61403 16.6118 9.3017 16.8681 8.9363 17.0194C8.5709 17.1708 8.16884 17.2104 7.78093 17.1332C7.39302 17.0561 7.0367 16.8657 6.75699 16.5861L0.877993 10.7071C0.31558 10.1445 -0.000366211 9.38155 -0.000366211 8.58606C-0.000366211 7.79057 0.31558 7.02764 0.877993 6.46506L6.75699 0.586062C7.0367 0.306443 7.39302 0.11603 7.78093 0.0388953C8.16884 -0.0382398 8.5709 0.001366 8.9363 0.152706C9.3017 0.304046 9.61403 0.560325 9.8338 0.889145C10.0536 1.21796 10.1709 1.60456 10.171 2.00006V3.58606H15.001C17.3871 3.58871 19.6748 4.53777 21.362 6.22502C23.0493 7.91228 23.9983 10.1999 24.001 12.5861V19.5861C24.001 19.8513 23.8956 20.1056 23.7081 20.2932C23.5206 20.4807 23.2662 20.5861 23.001 20.5861ZM8.17099 2.00006L2.29199 7.87906C2.10452 8.06659 1.99921 8.3209 1.99921 8.58606C1.99921 8.85123 2.10452 9.10553 2.29199 9.29306L8.17099 15.1721V12.5861C8.17099 12.3208 8.27635 12.0665 8.46389 11.879C8.65142 11.6914 8.90578 11.5861 9.17099 11.5861H16.001C17.1366 11.5857 18.2592 11.8276 19.2938 12.2956C20.3285 12.7637 21.2514 13.447 22.001 14.3001V12.5861C21.9989 10.7302 21.2607 8.95095 19.9484 7.63865C18.6361 6.32636 16.8569 5.58818 15.001 5.58606H9.17099C8.90578 5.58606 8.65142 5.4807 8.46389 5.29317C8.27635 5.10563 8.17099 4.85128 8.17099 4.58606V2.00006Z" fill="white"/>
</svg>
