<svg width="15" height="13" viewBox="0 0 15 13" fill="none" xmlns="http://www.w3.org/2000/svg">
<path d="M14.839 8.15197L13.71 4.43397C13.3484 3.13404 12.563 1.99212 11.4784 1.1894C10.3939 0.386672 9.07235 -0.0308755 7.72349 0.00300976C6.37462 0.036895 5.07571 0.520272 4.03285 1.37644C2.98999 2.23261 2.26292 3.41252 1.967 4.72897L1.091 8.32897C0.974521 8.80697 0.968149 9.30519 1.07237 9.78601C1.17659 10.2668 1.38868 10.7177 1.69263 11.1046C1.99658 11.4914 2.38444 11.8042 2.82694 12.0193C3.26944 12.2343 3.75502 12.346 4.247 12.346H11.729C12.2363 12.3461 12.7365 12.2274 13.1897 11.9994C13.6428 11.7715 14.0363 11.4405 14.3385 11.0331C14.6407 10.6257 14.8433 10.1532 14.9301 9.65335C15.0168 9.15355 14.9853 8.64039 14.838 8.15497L14.839 8.15197Z" fill="white"/>
</svg>
